<?xml version="1.0" standalone="no"?><!DOCTYPE svg PUBLIC "-//W3C//DTD SVG 1.1//EN" "http://www.w3.org/Graphics/SVG/1.1/DTD/svg11.dtd"><svg width="250" height="200" viewBox="0 0 250 200" version="1.1" xmlns="http://www.w3.org/2000/svg" xmlns:xlink="http://www.w3.org/1999/xlink"><defs><style type="text/css"><![CDATA[
@font-face { font-family: ifont; src: url(http://at.alicdn.com/t/font_1442373896_4754455.eot?#iefix) format(embedded-opentype), url(http://at.alicdn.com/t/font_1442373896_4754455.woff) format(woff), url(http://at.alicdn.com/t/font_1442373896_4754455.ttf) format(truetype), url(http://at.alicdn.com/t/font_1442373896_4754455.svg#ifont) format(svg); }

]]></style></defs><g class="transform-group"><g transform="scale(0.1953125, 0.1953125)"><path d="M133.12 512C133.12 232.106667 360.106667 5.12 640 5.12S1146.88 232.106667 1146.88 512 919.893333 1018.88 640 1018.88 133.12 791.893333 133.12 512zM234.666667 512c0 224 181.333333 405.333333 405.333333 405.333333s405.333333-181.333333 405.333333-405.333333S864 106.666667 640 106.666667 234.666667 288 234.666667 512zM759.04 317.44 640 426.666667 520.96 317.44 427.946667 398.933333 546.986667 512 417.28 630.613333 510.293333 723.626667 640 600.32 769.706667 723.626667 862.72 630.613333 733.013333 512 852.053333 398.933333Z" fill="#272636"></path></g></g></svg>